<mxfile host="app.diagrams.net" modified="2022-05-07T14:29:00.640Z" agent="5.0 (Macintosh; Intel Mac OS X 10_15_7) AppleWebKit/537.36 (KHTML, like Gecko) Chrome/101.0.4951.41 Safari/537.36" etag="uBgOb2BtSx30z-iLAZ2C" version="18.0.1" type="github">
  <diagram id="B7AXVlLY-eiI-Oqju9-f" name="Page-1">
    <mxGraphModel dx="946" dy="556" grid="0" gridSize="10" guides="1" tooltips="1" connect="1" arrows="1" fold="1" page="1" pageScale="1" pageWidth="827" pageHeight="1169" background="none" math="0" shadow="0">
      <root>
        <mxCell id="0" />
        <mxCell id="1" parent="0" />
        <mxCell id="KsO9cF9kJx_4HbaDXKMt-7" value="" style="ellipse;whiteSpace=wrap;html=1;aspect=fixed;strokeColor=#d6b656;points=[[0,0.5,0,0,0],[0.15,0.15,0,0,0],[0.15,0.85,0,0,0],[0.5,0,0,0,0],[0.5,0.49,0,0,0],[0.5,1,0,0,0],[0.85,0.15,0,0,0],[0.85,0.85,0,0,0],[1,0.5,0,0,0]];fillColor=#fff2cc;" vertex="1" parent="1">
          <mxGeometry x="242" y="173" width="280" height="280" as="geometry" />
        </mxCell>
        <mxCell id="KsO9cF9kJx_4HbaDXKMt-8" value="" style="endArrow=open;html=1;rounded=0;fillColor=#fa6800;strokeColor=#C73500;strokeWidth=2;entryX=0.996;entryY=0.475;entryDx=0;entryDy=0;entryPerimeter=0;endFill=0;" edge="1" parent="1" target="KsO9cF9kJx_4HbaDXKMt-7">
          <mxGeometry width="50" height="50" relative="1" as="geometry">
            <mxPoint x="387" y="311" as="sourcePoint" />
            <mxPoint x="531" y="309" as="targetPoint" />
          </mxGeometry>
        </mxCell>
        <mxCell id="KsO9cF9kJx_4HbaDXKMt-9" value="" style="endArrow=open;html=1;rounded=0;strokeWidth=2;entryX=0.5;entryY=0;entryDx=0;entryDy=0;entryPerimeter=0;fillColor=#1ba1e2;strokeColor=#006EAF;endFill=0;" edge="1" parent="1" target="KsO9cF9kJx_4HbaDXKMt-7">
          <mxGeometry width="50" height="50" relative="1" as="geometry">
            <mxPoint x="387" y="311" as="sourcePoint" />
            <mxPoint x="437" y="261" as="targetPoint" />
          </mxGeometry>
        </mxCell>
        <mxCell id="KsO9cF9kJx_4HbaDXKMt-10" value="" style="endArrow=open;html=1;strokeWidth=2;entryX=0.411;entryY=0.011;entryDx=0;entryDy=0;entryPerimeter=0;strokeColor=#006EAF;fillColor=#1ba1e2;curved=1;endFill=0;shadow=0;sketch=0;opacity=50;" edge="1" parent="1" target="KsO9cF9kJx_4HbaDXKMt-7">
          <mxGeometry width="50" height="50" relative="1" as="geometry">
            <mxPoint x="387" y="311" as="sourcePoint" />
            <mxPoint x="437" y="261" as="targetPoint" />
          </mxGeometry>
        </mxCell>
        <mxCell id="KsO9cF9kJx_4HbaDXKMt-12" value="" style="endArrow=classic;html=1;shadow=0;sketch=0;strokeColor=#C73500;strokeWidth=2;opacity=50;curved=1;entryX=0.993;entryY=0.552;entryDx=0;entryDy=0;entryPerimeter=0;fillColor=#fa6800;" edge="1" parent="1" target="KsO9cF9kJx_4HbaDXKMt-7">
          <mxGeometry width="50" height="50" relative="1" as="geometry">
            <mxPoint x="386" y="312" as="sourcePoint" />
            <mxPoint x="437" y="256" as="targetPoint" />
            <Array as="points">
              <mxPoint x="387" y="312" />
            </Array>
          </mxGeometry>
        </mxCell>
        <mxCell id="KsO9cF9kJx_4HbaDXKMt-18" value="" style="endArrow=classic;html=1;shadow=0;sketch=0;strokeColor=#C73500;strokeWidth=2;opacity=30;curved=1;entryX=0.989;entryY=0.613;entryDx=0;entryDy=0;entryPerimeter=0;fillColor=#fa6800;" edge="1" parent="1" target="KsO9cF9kJx_4HbaDXKMt-7">
          <mxGeometry width="50" height="50" relative="1" as="geometry">
            <mxPoint x="389" y="311" as="sourcePoint" />
            <mxPoint x="593" y="226" as="targetPoint" />
          </mxGeometry>
        </mxCell>
        <mxCell id="KsO9cF9kJx_4HbaDXKMt-19" value="" style="endArrow=classic;html=1;shadow=0;sketch=0;strokeColor=#006EAF;strokeWidth=2;opacity=30;curved=1;entryX=0.614;entryY=0.009;entryDx=0;entryDy=0;entryPerimeter=0;fillColor=#1ba1e2;" edge="1" parent="1" target="KsO9cF9kJx_4HbaDXKMt-7">
          <mxGeometry width="50" height="50" relative="1" as="geometry">
            <mxPoint x="387" y="306" as="sourcePoint" />
            <mxPoint x="389" y="191" as="targetPoint" />
          </mxGeometry>
        </mxCell>
        <mxCell id="KsO9cF9kJx_4HbaDXKMt-23" value="" style="endArrow=none;dashed=1;html=1;dashPattern=1 3;strokeWidth=2;shadow=0;sketch=0;opacity=30;curved=1;" edge="1" parent="1" target="KsO9cF9kJx_4HbaDXKMt-7">
          <mxGeometry width="50" height="50" relative="1" as="geometry">
            <mxPoint x="414" y="180" as="sourcePoint" />
            <mxPoint x="495" y="310" as="targetPoint" />
          </mxGeometry>
        </mxCell>
        <mxCell id="KsO9cF9kJx_4HbaDXKMt-24" value="" style="endArrow=none;dashed=1;html=1;shadow=0;sketch=0;strokeColor=#001DBC;strokeWidth=2;curved=1;fillColor=#0050ef;opacity=30;" edge="1" parent="1">
          <mxGeometry width="50" height="50" relative="1" as="geometry">
            <mxPoint x="415" y="178" as="sourcePoint" />
            <mxPoint x="515" y="344" as="targetPoint" />
          </mxGeometry>
        </mxCell>
        <mxCell id="KsO9cF9kJx_4HbaDXKMt-27" value="" style="endArrow=none;dashed=1;html=1;shadow=0;sketch=0;strokeColor=#FF0000;strokeWidth=2;curved=1;fillColor=#a20025;" edge="1" parent="1">
          <mxGeometry width="50" height="50" relative="1" as="geometry">
            <mxPoint x="383" y="174" as="sourcePoint" />
            <mxPoint x="519" y="305" as="targetPoint" />
          </mxGeometry>
        </mxCell>
        <mxCell id="KsO9cF9kJx_4HbaDXKMt-28" value="" style="endArrow=none;dashed=1;html=1;shadow=0;sketch=0;strokeColor=#000000;strokeWidth=2;curved=1;" edge="1" parent="1" target="KsO9cF9kJx_4HbaDXKMt-7">
          <mxGeometry width="50" height="50" relative="1" as="geometry">
            <mxPoint x="357" y="177" as="sourcePoint" />
            <mxPoint x="437" y="256" as="targetPoint" />
          </mxGeometry>
        </mxCell>
        <mxCell id="KsO9cF9kJx_4HbaDXKMt-29" value="" style="endArrow=none;dashed=1;html=1;shadow=0;sketch=0;strokeColor=#3700CC;strokeWidth=2;curved=1;entryX=0.993;entryY=0.559;entryDx=0;entryDy=0;entryPerimeter=0;fillColor=#6a00ff;opacity=50;" edge="1" parent="1" target="KsO9cF9kJx_4HbaDXKMt-7">
          <mxGeometry width="50" height="50" relative="1" as="geometry">
            <mxPoint x="359" y="178" as="sourcePoint" />
            <mxPoint x="511" y="328" as="targetPoint" />
          </mxGeometry>
        </mxCell>
      </root>
    </mxGraphModel>
  </diagram>
</mxfile>
